<svg width="60" height="60" viewBox="0 0 18 18" fill="#F46B52" xmlns="http://www.w3.org/2000/svg">
<path d="M8.63816 15.8597C10.5731 15.8597 12.3871 15.1168 13.7519 13.7519C15.1168 12.3871 15.8597 10.5731 15.8597 8.63816C15.8597 6.70321 15.1168 4.88919 13.7519 3.52437C12.3871 2.15954 10.5731 1.41666 8.63816 1.41666C6.70321 1.41666 4.8892 2.15954 3.52437 3.52437C2.15954 4.88919 1.41666 6.70321 1.41666 8.63816C1.41666 10.5731 2.15954 12.3871 3.52437 13.7519C4.8892 15.1168 6.70321 15.8597 8.63816 15.8597ZM9.05279 14.633C8.91458 14.6503 8.77637 14.6503 8.63816 14.6503C8.44812 14.6503 8.25808 14.633 8.06804 14.6158C7.44609 13.6483 6.97963 12.6117 6.70321 11.5233H9.76112C9.86478 11.7824 10.0548 12.0243 10.2794 12.1798C9.98571 13.0436 9.57108 13.8556 9.05279 14.633V14.633ZM10.694 14.2875C11.0223 13.6828 11.2814 13.0782 11.4888 12.4389C11.9898 12.3353 12.3871 11.9898 12.5772 11.5233H13.9074C13.2164 12.7845 12.0589 13.7692 10.694 14.2875ZM14.633 8.63816C14.633 9.20827 14.5467 9.76112 14.4084 10.2967H12.5426C12.4389 10.0721 12.2662 9.86478 12.0589 9.70929C12.0934 9.32921 12.1107 8.94913 12.1107 8.56905C12.1107 8.03349 12.0761 7.49792 12.007 6.97963H14.3912C14.5639 7.49792 14.633 8.06804 14.633 8.63816V8.63816ZM13.9074 5.75301H11.7997C11.5751 4.80281 11.2469 3.90445 10.7977 3.04063C12.1107 3.54164 13.2164 4.52639 13.9074 5.75301ZM10.9014 8.56905C10.9014 8.86275 10.8841 9.15645 10.8668 9.45014C10.3831 9.5538 9.98571 9.86477 9.79567 10.2967H6.46134C6.39224 9.77839 6.34041 9.24283 6.34041 8.72454C6.34041 8.39629 6.35769 8.06804 6.39224 7.73979C6.84142 7.65341 7.20423 7.35971 7.42882 6.97963H10.7977C10.8668 7.49792 10.9014 8.03349 10.9014 8.56905V8.56905ZM8.18897 2.66055C8.34446 2.64327 8.49995 2.64328 8.63816 2.64328C8.81092 2.64328 8.98369 2.64327 9.15645 2.66055C9.7784 3.62802 10.2449 4.6646 10.5213 5.75301H7.5152C7.41154 5.45931 7.2215 5.20017 6.97963 5.01013C7.29061 4.18087 7.68796 3.40343 8.18897 2.66055ZM6.54772 3.00608C6.25403 3.55892 5.99488 4.14631 5.78757 4.73371C5.252 4.83737 4.82009 5.23472 4.64733 5.73573H3.38616C4.05994 4.50912 5.1829 3.52437 6.54772 3.00608ZM2.64328 8.63816C2.64328 8.06804 2.72966 7.49792 2.88515 6.97963H4.76827C4.87192 7.16967 5.02741 7.34243 5.20017 7.48064C5.16562 7.89527 5.13107 8.30991 5.13107 8.72454C5.13107 9.2601 5.16562 9.77839 5.23473 10.2967H2.88515C2.71238 9.76112 2.64328 9.20827 2.64328 8.63816ZM5.44204 11.506C5.66663 12.4389 5.99488 13.3546 6.44407 14.2184C5.13107 13.7001 4.04266 12.7326 3.36888 11.506H5.44204Z" fill="#F46B52"/>
</svg>
